<mxfile host="app.diagrams.net" modified="2023-02-17T00:50:00.718Z" agent="5.0 (Macintosh; Intel Mac OS X 10_15_7) AppleWebKit/537.36 (KHTML, like Gecko) Chrome/109.0.0.0 Safari/537.36" etag="g2wqO8tsjv-UKFcM35JN" version="20.8.20" type="github">
  <diagram id="C5RBs43oDa-KdzZeNtuy" name="Page-1">
    <mxGraphModel dx="1108" dy="641" grid="1" gridSize="10" guides="1" tooltips="1" connect="1" arrows="1" fold="1" page="1" pageScale="1" pageWidth="827" pageHeight="1169" math="0" shadow="0">
      <root>
        <mxCell id="WIyWlLk6GJQsqaUBKTNV-0" />
        <mxCell id="WIyWlLk6GJQsqaUBKTNV-1" parent="WIyWlLk6GJQsqaUBKTNV-0" />
        <mxCell id="4pXG4PhchC7D8Zy84Ljs-0" value="审核开" style="whiteSpace=wrap;html=1;aspect=fixed;fillColor=#60a917;strokeColor=#2D7600;fontColor=#ffffff;" vertex="1" parent="WIyWlLk6GJQsqaUBKTNV-1">
          <mxGeometry x="300" y="20" width="80" height="80" as="geometry" />
        </mxCell>
        <mxCell id="4pXG4PhchC7D8Zy84Ljs-1" value="分组开" style="whiteSpace=wrap;html=1;aspect=fixed;fillColor=#60a917;strokeColor=#2D7600;fontColor=#ffffff;" vertex="1" parent="WIyWlLk6GJQsqaUBKTNV-1">
          <mxGeometry x="400" y="20" width="80" height="80" as="geometry" />
        </mxCell>
        <mxCell id="4pXG4PhchC7D8Zy84Ljs-5" style="edgeStyle=orthogonalEdgeStyle;rounded=0;orthogonalLoop=1;jettySize=auto;html=1;entryX=0.183;entryY=-0.05;entryDx=0;entryDy=0;fillColor=#fa6800;strokeColor=#C73500;exitX=0.183;exitY=0.983;exitDx=0;exitDy=0;exitPerimeter=0;entryPerimeter=0;" edge="1" parent="WIyWlLk6GJQsqaUBKTNV-1" source="4pXG4PhchC7D8Zy84Ljs-2" target="4pXG4PhchC7D8Zy84Ljs-7">
          <mxGeometry relative="1" as="geometry">
            <mxPoint x="110" y="459" as="targetPoint" />
          </mxGeometry>
        </mxCell>
        <mxCell id="4pXG4PhchC7D8Zy84Ljs-6" value="发送聊天" style="edgeLabel;html=1;align=center;verticalAlign=middle;resizable=0;points=[];" vertex="1" connectable="0" parent="4pXG4PhchC7D8Zy84Ljs-5">
          <mxGeometry x="0.25" y="-2" relative="1" as="geometry">
            <mxPoint x="2" y="-48" as="offset" />
          </mxGeometry>
        </mxCell>
        <mxCell id="4pXG4PhchC7D8Zy84Ljs-30" value="直接通过" style="edgeLabel;html=1;align=center;verticalAlign=middle;resizable=0;points=[];" vertex="1" connectable="0" parent="4pXG4PhchC7D8Zy84Ljs-5">
          <mxGeometry x="0.1781" y="-2" relative="1" as="geometry">
            <mxPoint as="offset" />
          </mxGeometry>
        </mxCell>
        <mxCell id="4pXG4PhchC7D8Zy84Ljs-2" value="无渠道管理员0" style="rounded=0;whiteSpace=wrap;html=1;fillColor=#fff2cc;strokeColor=#d6b656;" vertex="1" parent="WIyWlLk6GJQsqaUBKTNV-1">
          <mxGeometry x="20" y="279" width="120" height="60" as="geometry" />
        </mxCell>
        <mxCell id="4pXG4PhchC7D8Zy84Ljs-3" value="渠道A管理" style="rounded=0;whiteSpace=wrap;html=1;fillColor=#e1d5e7;strokeColor=#9673a6;" vertex="1" parent="WIyWlLk6GJQsqaUBKTNV-1">
          <mxGeometry x="320" y="269" width="120" height="60" as="geometry" />
        </mxCell>
        <mxCell id="4pXG4PhchC7D8Zy84Ljs-4" value="渠道B管理" style="rounded=0;whiteSpace=wrap;html=1;fillColor=#e1d5e7;strokeColor=#9673a6;" vertex="1" parent="WIyWlLk6GJQsqaUBKTNV-1">
          <mxGeometry x="590" y="289" width="120" height="60" as="geometry" />
        </mxCell>
        <mxCell id="4pXG4PhchC7D8Zy84Ljs-7" value="无渠道用户0" style="rounded=0;whiteSpace=wrap;html=1;fillColor=#fff2cc;strokeColor=#d6b656;" vertex="1" parent="WIyWlLk6GJQsqaUBKTNV-1">
          <mxGeometry x="20" y="479" width="120" height="60" as="geometry" />
        </mxCell>
        <mxCell id="4pXG4PhchC7D8Zy84Ljs-8" value="渠道A用户" style="rounded=0;whiteSpace=wrap;html=1;fillColor=#e1d5e7;strokeColor=#9673a6;" vertex="1" parent="WIyWlLk6GJQsqaUBKTNV-1">
          <mxGeometry x="320" y="484" width="120" height="50" as="geometry" />
        </mxCell>
        <mxCell id="4pXG4PhchC7D8Zy84Ljs-9" value="渠道B用户" style="rounded=0;whiteSpace=wrap;html=1;fillColor=#e1d5e7;strokeColor=#9673a6;" vertex="1" parent="WIyWlLk6GJQsqaUBKTNV-1">
          <mxGeometry x="590" y="449" width="120" height="60" as="geometry" />
        </mxCell>
        <mxCell id="4pXG4PhchC7D8Zy84Ljs-44" value="渠道过滤器" style="swimlane;whiteSpace=wrap;html=1;" vertex="1" parent="WIyWlLk6GJQsqaUBKTNV-1">
          <mxGeometry x="216" y="669" width="164" height="150" as="geometry" />
        </mxCell>
        <mxCell id="4pXG4PhchC7D8Zy84Ljs-45" value="审核聊天审核区" style="swimlane;whiteSpace=wrap;html=1;" vertex="1" parent="WIyWlLk6GJQsqaUBKTNV-1">
          <mxGeometry x="450" y="669" width="164" height="150" as="geometry" />
        </mxCell>
      </root>
    </mxGraphModel>
  </diagram>
</mxfile>
